<mxfile host="app.diagrams.net" modified="2021-09-27T05:29:00.238Z" agent="5.0 (Windows NT 10.0; Win64; x64) AppleWebKit/537.36 (KHTML, like Gecko) Chrome/93.0.4577.82 Safari/537.36" etag="XslQNQtuzx9PXbqRL40D" version="15.2.7" type="github">
  <diagram id="Y79srUsxN1G1WwjlnkYc" name="Page-1">
    <mxGraphModel dx="1102" dy="586" grid="1" gridSize="10" guides="1" tooltips="1" connect="1" arrows="1" fold="1" page="1" pageScale="1" pageWidth="850" pageHeight="1100" math="0" shadow="0">
      <root>
        <mxCell id="0" />
        <mxCell id="1" parent="0" />
        <mxCell id="LF0PDB1Mjzm0iJgUETIa-2" value="DataFlow Diagram" style="text;strokeColor=none;fillColor=none;html=1;fontSize=24;fontStyle=1;verticalAlign=middle;align=center;" vertex="1" parent="1">
          <mxGeometry x="310" y="30" width="230" height="50" as="geometry" />
        </mxCell>
        <mxCell id="LF0PDB1Mjzm0iJgUETIa-3" value="&lt;font style=&quot;font-size: 16px&quot;&gt;&lt;b&gt;Level-0&lt;/b&gt;&lt;/font&gt;" style="text;html=1;strokeColor=none;fillColor=none;align=center;verticalAlign=middle;whiteSpace=wrap;rounded=0;" vertex="1" parent="1">
          <mxGeometry x="10" y="140" width="70" height="20" as="geometry" />
        </mxCell>
        <mxCell id="LF0PDB1Mjzm0iJgUETIa-4" value="Passenger" style="rounded=0;whiteSpace=wrap;html=1;" vertex="1" parent="1">
          <mxGeometry x="170" y="185" width="80" height="30" as="geometry" />
        </mxCell>
        <mxCell id="LF0PDB1Mjzm0iJgUETIa-5" value="Railway&amp;nbsp;&lt;br&gt;Reservation" style="ellipse;whiteSpace=wrap;html=1;aspect=fixed;" vertex="1" parent="1">
          <mxGeometry x="375" y="160" width="80" height="80" as="geometry" />
        </mxCell>
        <mxCell id="LF0PDB1Mjzm0iJgUETIa-7" value="Admin" style="rounded=0;whiteSpace=wrap;html=1;" vertex="1" parent="1">
          <mxGeometry x="580" y="185" width="80" height="30" as="geometry" />
        </mxCell>
        <mxCell id="LF0PDB1Mjzm0iJgUETIa-8" value="Cancellation" style="text;html=1;strokeColor=none;fillColor=none;align=center;verticalAlign=middle;whiteSpace=wrap;rounded=0;" vertex="1" parent="1">
          <mxGeometry x="285" y="154.5" width="80" height="30" as="geometry" />
        </mxCell>
        <mxCell id="LF0PDB1Mjzm0iJgUETIa-9" value="Rejection&lt;span style=&quot;color: rgba(0 , 0 , 0 , 0) ; font-family: monospace ; font-size: 0px&quot;&gt;%3CmxGraphModel%3E%3Croot%3E%3CmxCell%20id%3D%220%22%2F%3E%3CmxCell%20id%3D%221%22%20parent%3D%220%22%2F%3E%3CmxCell%20id%3D%222%22%20value%3D%22Cancellation%22%20style%3D%22text%3Bhtml%3D1%3BstrokeColor%3Dnone%3BfillColor%3Dnone%3Balign%3Dcenter%3BverticalAlign%3Dmiddle%3BwhiteSpace%3Dwrap%3Brounded%3D0%3B%22%20vertex%3D%221%22%20parent%3D%221%22%3E%3CmxGeometry%20x%3D%22295%22%20y%3D%22140%22%20width%3D%2280%22%20height%3D%2230%22%20as%3D%22geometry%22%2F%3E%3C%2FmxCell%3E%3C%2Froot%3E%3C%2FmxGraphModel%3E&lt;/span&gt;" style="text;html=1;strokeColor=none;fillColor=none;align=center;verticalAlign=middle;whiteSpace=wrap;rounded=0;" vertex="1" parent="1">
          <mxGeometry x="260" y="184.5" width="80" height="30" as="geometry" />
        </mxCell>
        <mxCell id="LF0PDB1Mjzm0iJgUETIa-11" value="Ticket Info" style="text;html=1;strokeColor=none;fillColor=none;align=center;verticalAlign=middle;whiteSpace=wrap;rounded=0;" vertex="1" parent="1">
          <mxGeometry x="285" y="214.5" width="80" height="30" as="geometry" />
        </mxCell>
        <mxCell id="LF0PDB1Mjzm0iJgUETIa-12" style="edgeStyle=orthogonalEdgeStyle;rounded=0;orthogonalLoop=1;jettySize=auto;html=1;exitX=0.5;exitY=1;exitDx=0;exitDy=0;" edge="1" parent="1" source="LF0PDB1Mjzm0iJgUETIa-11" target="LF0PDB1Mjzm0iJgUETIa-11">
          <mxGeometry relative="1" as="geometry" />
        </mxCell>
        <mxCell id="LF0PDB1Mjzm0iJgUETIa-14" value="Up/Down Train Info" style="text;html=1;strokeColor=none;fillColor=none;align=center;verticalAlign=middle;whiteSpace=wrap;rounded=0;" vertex="1" parent="1">
          <mxGeometry x="460" y="154.5" width="80" height="30" as="geometry" />
        </mxCell>
        <mxCell id="LF0PDB1Mjzm0iJgUETIa-15" value="Train Info" style="text;html=1;strokeColor=none;fillColor=none;align=center;verticalAlign=middle;whiteSpace=wrap;rounded=0;" vertex="1" parent="1">
          <mxGeometry x="510" y="185" width="80" height="30" as="geometry" />
        </mxCell>
        <mxCell id="LF0PDB1Mjzm0iJgUETIa-16" value="Passenger Info" style="text;html=1;strokeColor=none;fillColor=none;align=center;verticalAlign=middle;whiteSpace=wrap;rounded=0;" vertex="1" parent="1">
          <mxGeometry x="460" y="210" width="80" height="30" as="geometry" />
        </mxCell>
        <mxCell id="LF0PDB1Mjzm0iJgUETIa-17" style="edgeStyle=orthogonalEdgeStyle;rounded=0;orthogonalLoop=1;jettySize=auto;html=1;exitX=0.5;exitY=1;exitDx=0;exitDy=0;" edge="1" parent="1" source="LF0PDB1Mjzm0iJgUETIa-16" target="LF0PDB1Mjzm0iJgUETIa-16">
          <mxGeometry relative="1" as="geometry" />
        </mxCell>
      </root>
    </mxGraphModel>
  </diagram>
</mxfile>
